<svg xmlns="http://www.w3.org/2000/svg" xmlns:xlink="http://www.w3.org/1999/xlink" width="1366" zoomAndPan="magnify" viewBox="0 0 1024.5 576" height="768" preserveAspectRatio="xMidYMid meet" version="1.0"><defs><clipPath id="afb7d6e8f9"><path d="M 0 271 L 1024 271 L 1024 575 L 0 575 Z M 0 271 " clip-rule="nonzero"/></clipPath><clipPath id="ac51e3666e"><path d="M 0 0.140625 L 1024 0.140625 L 1024 381.308594 L 0 381.308594 Z M 0 0.140625 " clip-rule="nonzero"/></clipPath></defs><g clip-path="url(#afb7d6e8f9)"><path fill="#ffc244" d="M -52.449219 377.898438 C -52.449219 499.03125 -53.390625 485.488281 -44.195312 496.84375 C -12.511719 535.9375 35.804688 560.769531 92.632812 567.15625 C 170.152344 575.871094 242.578125 567.917969 406.59375 532.683594 C 591.894531 492.878906 694 479.53125 801.15625 481.109375 C 926.769531 482.957031 1005.625 508.144531 1065.867188 565.65625 C 1070.964844 570.523438 1075.496094 574.507812 1075.9375 574.507812 C 1077.644531 574.507812 1076.984375 362.289062 1075.265625 358.964844 C 1068.601562 346.0625 1045.527344 323.292969 1025.710938 310.058594 C 986.757812 284.046875 943.117188 273.609375 873.207031 273.597656 C 806.789062 273.585938 751.582031 281.554688 615.390625 310.8125 C 383.492188 360.632812 248.492188 373.070312 128.328125 355.6875 C 56.636719 345.324219 -6.421875 316.46875 -45.898438 275.96875 C -53.140625 268.535156 -52.449219 257.785156 -52.449219 377.898438 " fill-opacity="1" fill-rule="evenodd"/></g><g clip-path="url(#ac51e3666e)"><path fill="#ffc244" d="M -211.410156 -164.417969 L 1150.773438 -164.417969 L 1150.773438 381.308594 L -211.410156 381.308594 Z M -211.410156 -164.417969 " fill-opacity="1" fill-rule="nonzero"/></g></svg>