<svg xmlns="http://www.w3.org/2000/svg" xmlns:xlink="http://www.w3.org/1999/xlink" width="1366" zoomAndPan="magnify" viewBox="0 0 1024.5 576" height="768" preserveAspectRatio="xMidYMid meet" version="1.0"><defs><clipPath id="1ff7db02ac"><path d="M 0 230 L 1024 230 L 1024 575 L 0 575 Z M 0 230 " clip-rule="nonzero"/></clipPath><clipPath id="22d6e93348"><path d="M 0 0.140625 L 1024 0.140625 L 1024 407 L 0 407 Z M 0 0.140625 " clip-rule="nonzero"/></clipPath></defs><g clip-path="url(#1ff7db02ac)"><path fill="#ffc244" d="M -151.152344 351.253906 C -151.152344 488.695312 -152.21875 473.328125 -141.785156 486.207031 C -105.835938 530.570312 -51.019531 558.742188 13.460938 565.988281 C 101.414062 575.875 183.589844 566.851562 369.683594 526.875 C 579.929688 481.710938 695.777344 466.566406 817.359375 468.355469 C 959.878906 470.453125 1049.351562 499.03125 1117.699219 564.285156 C 1123.484375 569.808594 1128.628906 574.328125 1129.128906 574.328125 C 1131.066406 574.328125 1130.316406 333.542969 1128.363281 329.769531 C 1120.804688 315.132812 1094.625 289.296875 1072.140625 274.28125 C 1027.945312 244.765625 978.425781 232.925781 899.109375 232.914062 C 823.746094 232.902344 761.113281 241.941406 606.585938 275.140625 C 343.472656 331.664062 190.300781 345.773438 53.960938 326.054688 C -27.382812 314.292969 -98.929688 281.554688 -143.71875 235.601562 C -151.9375 227.167969 -151.152344 214.96875 -151.152344 351.253906 " fill-opacity="1" fill-rule="evenodd"/></g><g clip-path="url(#22d6e93348)"><path fill="#ffc244" d="M -84.832031 124.34375 C -84.832031 298.355469 -86.183594 278.898438 -72.972656 295.207031 C -27.460938 351.371094 41.945312 387.042969 123.582031 396.21875 C 234.941406 408.738281 338.984375 397.3125 574.597656 346.695312 C 840.792969 289.511719 987.46875 270.339844 1141.402344 272.605469 C 1321.847656 275.257812 1435.128906 311.441406 1521.667969 394.0625 C 1528.992188 401.054688 1535.503906 406.777344 1536.136719 406.777344 C 1538.589844 406.777344 1537.640625 101.917969 1535.171875 97.140625 C 1525.597656 78.609375 1492.453125 45.898438 1463.984375 26.886719 C 1408.027344 -10.480469 1345.332031 -25.472656 1244.910156 -25.488281 C 1149.492188 -25.503906 1070.191406 -14.058594 874.542969 27.972656 C 541.414062 99.535156 347.480469 117.40625 174.859375 92.4375 C 71.871094 77.542969 -18.714844 36.09375 -75.421875 -22.085938 C -85.824219 -32.761719 -84.832031 -48.207031 -84.832031 124.34375 " fill-opacity="1" fill-rule="evenodd"/></g></svg>